<?xml version="1.0" encoding="UTF-8" standalone="no"?>
<!-- Uploaded to: SVG Repo, www.svgrepo.com, Generator: SVG Repo Mixer Tools -->

<svg
   width="16"
   height="16"
   viewBox="0 0 0.32 0.32"
   version="1.1"
   id="svg1"
   xmlns="http://www.w3.org/2000/svg"
   xmlns:svg="http://www.w3.org/2000/svg"
   xmlns:rdf="http://www.w3.org/1999/02/22-rdf-syntax-ns#"
   xmlns:cc="http://creativecommons.org/ns#">
  <defs
     id="defs1" />
  <path
     d="M 0.06,0 C 0.02710938,0 0,0.02710938 0,0.06 v 0.2 c 0,0.0328906 0.02710938,0.06 0.06,0.06 h 0.2 c 0.0328906,0 0.06,-0.0271094 0.06,-0.06 V 0.06 C 0.32,0.02710938 0.29289062,0 0.26,0 Z m 0,0.04 h 0.2 c 0.008437,0 0.0153125,0.0046875 0.0183594,0.01171876 L 0.265,0.066875 0.1390625,0.21078124 0.09414062,0.16585938 c -0.0078125,-0.007813 -0.02046874,-0.007813 -0.02828124,0 -0.0078125,0.007813 -0.0078125,0.0205469 0,0.0283594 l 0.06,0.06 c 0.008203,0.008125 0.0215625,0.007734 0.0292187,-0.001016 L 0.28,0.11046876 V 0.26 c 0,0.0114062 -0.008594,0.02 -0.02,0.02 H 0.06 C 0.04859376,0.28 0.04,0.271406 0.04,0.26 v -0.2 c 0,-0.01140624 0.0085938,-0.02 0.02,-0.02 z m 0,0"
     fill="#2e3436"
     id="path1"
     style="fill:#c8c8c8;fill-opacity:1;stroke-width:0.02" />
  <metadata
     id="metadata1">
    <rdf:RDF>
      <cc:Work
         rdf:about="" />
    </rdf:RDF>
  </metadata>
</svg>
