<?xml version="1.0" encoding="UTF-8" standalone="no"?>
<!-- Uploaded to: SVG Repo, www.svgrepo.com, Generator: SVG Repo Mixer Tools -->

<svg
   fill="#000000"
   height="16"
   width="16"
   version="1.1"
   id="Capa_1"
   viewBox="0 0 9.8890021 9.8890021"
   xml:space="preserve"
   xmlns="http://www.w3.org/2000/svg"
   xmlns:svg="http://www.w3.org/2000/svg"><defs
   id="defs6" />
<g
   id="g1"><path
     d="m 7.9045011,5.5465012 c -0.1360001,0 -0.27,-0.052 -0.374,-0.156 -1.4280001,-1.426 -3.748,-1.426 -5.176,0 -0.206,0.206 -0.542,0.206 -0.748,0 -0.206,-0.206 -0.206,-0.542 0,-0.748 1.84,-1.84 4.8319999,-1.84 6.672,0 0.206,0.206 0.206,0.542 0,0.748 -0.104,0.104 -0.24,0.156 -0.374,0.156 z"
     id="path1"
     style="fill:#c8c8c8;fill-opacity:0.2;stroke:none;stroke-width:0.02;stroke-opacity:1" /><path
     d="m 6.472501,6.9765012 c -0.136,0 -0.2699999,-0.052 -0.3739999,-0.156 -0.308,-0.308 -0.72,-0.478 -1.1560001,-0.478 -0.436,0 -0.848,0.17 -1.156,0.478 -0.206,0.206 -0.542,0.206 -0.748,0 -0.206,-0.206 -0.206,-0.542 0,-0.748 0.508,-0.508 1.184,-0.788 1.904,-0.788 0.7200001,0 1.3960001,0.28 1.904,0.79 0.206,0.206 0.206,0.542 0,0.748 -0.102,0.102 -0.238,0.154 -0.374,0.154 z"
     id="path2"
     style="fill:#c8c8c8;fill-opacity:0.2;stroke:none;stroke-width:0.02;stroke-opacity:1" /><circle
     cx="4.9425011"
     cy="7.9785008"
     r="0.70599997"
     id="circle2"
     style="fill:#c8c8c8;fill-opacity:0.2;stroke:none;stroke-width:0.02;stroke-opacity:1" /><path
     d="m 9.3585011,4.0925012 c -0.136,0 -0.27,-0.052 -0.374,-0.156 -2.2300001,-2.228 -5.854,-2.228 -8.08200005,0 -0.206,0.206 -0.542,0.206 -0.748,0 -0.206,-0.206 -0.206,-0.542 0,-0.748 1.27999995,-1.28 2.98000005,-1.984 4.78999995,-1.984 1.81,0 3.5100001,0.704 4.7900001,1.984 0.206,0.206 0.206,0.542 0,0.748 -0.106,0.104 -0.242,0.156 -0.376,0.156 z"
     id="path3"
     style="fill:#c8c8c8;fill-opacity:0.2;stroke:none;stroke-width:0.02;stroke-opacity:1" /></g>
<path
   style="fill:#ffffff;fill-opacity:0.2;stroke:#ff0d3b;stroke-width:0.927094;stroke-linecap:round;stroke-dasharray:none;stroke-opacity:1"
   d="M 8.6528768,1.8541879 1.2361253,8.0348142"
   id="path6" /></svg>
